<svg id="visual" viewBox="0 0 500 500" width="500" height="500" xmlns="http://www.w3.org/2000/svg" xmlns:xlink="http://www.w3.org/1999/xlink" version="1.1"><g transform="translate(289.8668387152011 224.03375882266593)"><path d="M91.2 -100C118.9 -85.4 142.7 -57.4 157.8 -20.5C173 16.3 179.6 61.9 161.2 92.5C142.8 123 99.5 138.6 57.5 150.6C15.6 162.6 -24.9 171 -64.2 162.7C-103.6 154.3 -141.9 129.2 -182.3 90.2C-222.7 51.2 -265.2 -1.5 -248.3 -34.4C-231.3 -67.3 -154.9 -80.4 -103.6 -90.9C-52.3 -101.4 -26.1 -109.3 2.8 -112.6C31.7 -115.9 63.4 -114.6 91.2 -100" fill="#d0e2ff"></path></g></svg>