<svg id="visual" viewBox="0 0 500 500" width="500" height="500" xmlns="http://www.w3.org/2000/svg" xmlns:xlink="http://www.w3.org/1999/xlink" version="1.1"><g transform="translate(255.2042187289847 245.85918903872872)"><path d="M161.7 -189.4C201.8 -159.2 221 -100.8 222.1 -46.3C223.1 8.1 206 58.5 177 96C148 133.4 107.2 157.9 60.6 181.2C14 204.5 -38.3 226.8 -94.5 222.4C-150.6 218.1 -210.6 187.2 -227.4 140.1C-244.1 92.9 -217.6 29.6 -185 -11.4C-152.5 -52.4 -113.9 -71.1 -82.1 -102.8C-50.2 -134.5 -25.1 -179.3 17.9 -200.6C60.9 -221.9 121.7 -219.7 161.7 -189.4" fill="#a5f5ed"></path></g></svg>