<?xml version="1.0" standalone="no"?>
<svg viewBox="0 0 200 200" xmlns="http://www.w3.org/2000/svg">
  <path fill="#D0E2FF" d="M51.7,-64.5C66.7,-60.2,78.3,-44.7,82.9,-27.6C87.5,-10.5,85.1,8.2,78.6,24.7C72.1,41.2,61.5,55.6,47.7,67.6C33.9,79.6,16.9,89.2,0.3,88.7C-16.3,88.3,-32.6,77.8,-46.8,65.9C-61.1,54.1,-73.3,40.9,-73.8,26.9C-74.3,12.9,-63.1,-2,-54.9,-14.9C-46.7,-27.9,-41.5,-38.9,-32.8,-45.2C-24.2,-51.4,-12.1,-53,3.1,-57.3C18.3,-61.6,36.7,-68.7,51.7,-64.5Z" transform="translate(100 100)" />
</svg>
