<?xml version="1.0"?>
<svg xmlns="http://www.w3.org/2000/svg" xmlns:xlink="http://www.w3.org/1999/xlink" xmlns:svgjs="http://svgjs.com/svgjs" version="1.1" width="512" height="512" x="0" y="0" viewBox="0 0 512 512" style="enable-background:new 0 0 512 512" xml:space="preserve" class=""><g><g xmlns="http://www.w3.org/2000/svg"><path d="m46 347c0 90.981 74.019 165 165 165s165-74.019 165-165c0-37.354-12.832-74.96-36.138-104.052l-128.862-160.942-128.862 160.942c-23.306 29.092-36.138 66.698-36.138 104.052zm90 0c0 41.353 33.647 75 75 75v30c-57.891 0-105-47.109-105-105z" fill="#ffffff" data-original="#000000" style=""/><path d="m391 196c41.353 0 75-33.647 75-75 0-17.241-5.669-33.428-16.392-46.802l-58.608-74.198-58.608 74.198c-10.723 13.374-16.392 29.561-16.392 46.802 0 41.353 33.647 75 75 75z" fill="#ffffff" data-original="#000000" style=""/></g></g></svg>
