<svg id="Filled" height="512" viewBox="0 0 512 512" width="512" xmlns="http://www.w3.org/2000/svg"><circle cx="112" cy="64" fill="#f0dfce" r="16"/><path d="m64 336v8a32 32 0 0 0 32 32h32v96h64v-104a32 32 0 0 0 -32-32z" fill="#596063"/><path d="m40 232v-16c0-32 24-56 24-56h48v72z" fill="#95573a"/><path d="m224 296a24 24 0 0 1 24 24 24 24 0 0 1 -24 24h-40v-48z" fill="#e3d3c2"/><path d="m48 376h80v32h-80z" fill="#2d85cc"/><path d="m72 171.636v-7.272c0-20.083 17.909-36.364 40-36.364s40 16.281 40 36.364v11.636c0 20.083-17.909 32-40 32s-40-16.281-40-36.364z" fill="#f7cca9"/><path d="m64 304v40a32 32 0 0 0 32 32h32v96h32v-168z" fill="#606669"/><path d="m192 456v-32h-32v56a8 8 0 0 0 8 8h72s0-32-48-32z" fill="#7a4830"/><path d="m160 456v-32h-32v56a8 8 0 0 0 8 8h72s0-32-48-32z" fill="#95573a"/><ellipse cx="368" cy="464" fill="#2d85cc" rx="104" ry="24"/><path d="m397.29 305.23c-5.23 2.25-17.26 6.77-29.29 6.77s-24.06-4.52-29.29-6.77c7.71-30.44 29.29-41.23 29.29-41.23s21.58 10.79 29.29 41.23z" fill="#1261a0"/><path d="m64 128a48 48 0 0 1 96 0z" fill="#f0dfce"/><path d="m64 128h96v32h-96z" fill="#eb423f"/><path d="m160 344v-112h-112v80a32 32 0 0 0 32 32z" fill="#f7b030"/><rect fill="#eb423f" height="32" rx="8" width="128" x="40" y="208"/><path d="m128 240h32v72h-32z" fill="#c7312e"/><path d="m168 280a16 16 0 0 1 16 16h8a24 24 0 0 1 24 24 24 24 0 0 1 -24 24h-40v-48a16 16 0 0 1 16-16z" fill="#f0dfce"/><path d="m364.444 408h-28.444l16-32s-16-16-16-48c0-48 32-64 32-64s32 16 32 64c0 32-16 48-16 48l16 32z" fill="#2d85cc"/><path d="m396.95 303.91a55.844 55.844 0 0 1 -57.9 0c8-29.43 28.95-39.91 28.95-39.91s20.95 10.48 28.95 39.91z" fill="#1261a0"/><path d="m88 128h16v32h-16z" fill="#c7312e"/><path d="m120 128h16v32h-16z" fill="#c7312e"/><path d="m443.338 439.234c-20.216-4.665-46.971-7.234-75.338-7.234s-55.122 2.569-75.338 7.234c-24.67 5.693-36.662 13.794-36.662 24.766s11.992 19.073 36.662 24.766c20.216 4.665 46.971 7.234 75.338 7.234s55.122-2.569 75.338-7.234c24.67-5.693 36.662-13.794 36.662-24.766s-11.992-19.073-36.662-24.766zm-7.9 34.877c-18.522 3.798-42.472 5.889-67.438 5.889s-48.916-2.091-67.438-5.889c-18.227-3.736-25.789-8.013-28.039-10.111 2.25-2.1 9.812-6.375 28.039-10.111 18.522-3.798 42.472-5.889 67.438-5.889s48.916 2.091 67.438 5.889c18.227 3.736 25.789 8.013 28.039 10.111-2.25 2.1-9.812 6.375-28.039 10.111z"/><path d="m200 448.309v-80.309a39.975 39.975 0 0 0 -3.353-16h27.353a32 32 0 0 0 0-64h-24v-16h24a8 8 0 0 0 8-8v-16a8 8 0 0 0 -16 0v8h-16v-87.227c0-30.226 18.252-64.288 48.826-91.114 31.486-27.627 70.692-43.608 111.174-45.474v227.369c-8.489 5.858-26.5 21.786-30.968 53.509a32.331 32.331 0 0 0 -9.47 4.281c-7.099 4.733-15.562 14.587-15.562 34.656a8 8 0 0 0 16 0c0-12.22 4-18.219 8.064-21.168.657 23.577 9.3 39.028 14.479 46.194l-13.7 27.4a8 8 0 0 0 7.157 11.574h64a8 8 0 0 0 7.155-11.578l-13.7-27.4c5.173-7.162 13.812-22.6 14.478-46.149 4.025 2.959 8.067 8.951 8.067 21.127a8 8 0 0 0 16 0c0-20.069-8.463-29.923-15.562-34.656a32.331 32.331 0 0 0 -9.47-4.281c-4.468-31.723-22.479-47.651-30.968-53.509v-235.554a8 8 0 0 0 -8-8c-47.18 0-93.251 17.626-129.727 49.633-33.984 29.819-54.273 68.376-54.273 103.14v109.375a23.887 23.887 0 0 0 -16-6.148v-26.165a16 16 0 0 0 8-13.835v-16a16.019 16.019 0 0 0 -16-16h-8.558a36.668 36.668 0 0 0 8.558-24v-8a8 8 0 0 0 8-8v-32a56.077 56.077 0 0 0 -35.234-51.991 24 24 0 1 0 -41.532 0 56.077 56.077 0 0 0 -35.234 51.991v28.883c-6.478 7.382-24 30.036-24 59.117v16a16 16 0 0 0 8 13.835v66.165a39.962 39.962 0 0 0 16 31.978v.022a39.788 39.788 0 0 0 8.022 24h-16.022a8 8 0 0 0 -8 8v32a8 8 0 0 0 8 8h8v72a8 8 0 0 0 16 0v-72h48v64a16.019 16.019 0 0 0 16 16h104a8 8 0 0 0 8-8 37 37 0 0 0 -7.6-20.8c-9.952-13.269-26.256-17.772-40.4-18.891zm176.845-68.731 10.211 20.422h-38.112l10.211-20.422a7.923 7.923 0 0 0 -1.455-9.191c-.559-.577-13.7-14.458-13.7-42.387a89.669 89.669 0 0 1 1-13.58 50.177 50.177 0 0 0 45.987 0 89.234 89.234 0 0 1 1.013 13.58c0 27.929-13.141 41.81-13.657 42.343a8 8 0 0 0 -1.498 9.235zm10.013-80.719-.515-.516.092-.09c-.251.235-6.286 5.747-18.435 5.747s-18.184-5.512-18.435-5.747l.092.09-.555.555c5.483-14.037 14.059-21.9 18.889-25.434 4.803 3.536 13.371 11.399 18.867 25.395zm-218.858 133.141h16v19.174a78.4 78.4 0 0 0 -16-2.865zm72-112a16.019 16.019 0 0 1 -16 16h-4.3a31.885 31.885 0 0 0 0-32h4.3a16.019 16.019 0 0 1 16 16zm-64-24a8 8 0 0 0 8 8h8a16 16 0 0 1 0 32h-32v-40a8 8 0 0 1 16 0zm-32 0v8h-8v-56h16v30.131a23.943 23.943 0 0 0 -8 17.869zm0 40h-64a24.028 24.028 0 0 1 -24-24v-64h64v56h-32v-32a8 8 0 0 0 -16 0v32a16.019 16.019 0 0 0 16 16h56zm0-160c0 16.579-16.072 24-32 24s-32-7.421-32-24v-8h64zm8-24h-16v-16h16zm-32 0h-16v-16h16zm-32 0h-16v-16h16zm-24 20.481v3.519a36.668 36.668 0 0 0 8.558 24h-22.323a85.11 85.11 0 0 1 13.765-27.519zm40-108.481a8 8 0 1 1 8 8 8.009 8.009 0 0 1 -8-8zm8 24a40.067 40.067 0 0 1 39.2 32h-78.395a40.067 40.067 0 0 1 39.195-32zm48 128 .01 16h-112.01v-16zm-86.826 135.4a40 40 0 0 0 6.826.6h97.88a24.014 24.014 0 0 1 6.12 16v48h-16v-40a8 8 0 0 0 -16 0v40h-16v-40a8 8 0 0 0 -8-8h-32a24.04 24.04 0 0 1 -22.826-16.595zm-17.174 48.6v-16h64v16zm80 80v-48h16v24a8 8 0 0 0 8 8c24.607 0 34.081 8.956 37.727 16zm78.725 0a38.713 38.713 0 0 0 -6.325-12.8c-.487-.648-1-1.259-1.516-1.866 13.824 2.753 20.049 9.268 22.843 14.666z"/></svg>