<svg id="Capa_1" enable-background="new 0 0 512 512" height="512" viewBox="0 0 512 512" width="512" xmlns="http://www.w3.org/2000/svg" xmlns:xlink="http://www.w3.org/1999/xlink"><linearGradient id="SVGID_1_" gradientUnits="userSpaceOnUse" x1="256" x2="256" y1="512" y2="0"><stop offset="0" stop-color="#ffc8d1"/><stop offset="1" stop-color="#fff6f7"/></linearGradient><linearGradient id="SVGID_2_" gradientUnits="userSpaceOnUse" x1="256" x2="256" y1="105" y2="407"><stop offset="0" stop-color="#fd3a84"/><stop offset="1" stop-color="#ffa68d"/></linearGradient><g><g><circle cx="256" cy="256" fill="url(#SVGID_1_)" r="256"/></g><g><g><path d="m335.941 327.059c-19.541 0-35.53-15.989-35.53-35.53 0-4.975-3.908-8.882-8.882-8.882s-8.882 3.908-8.882 8.882v35.53c0 12.436 5.151 23.804 13.501 31.798-7.106 3.731-12.791 9.06-16.699 16.167-4.797 8.705-13.679 14.212-23.449 14.212-4.975 0-8.882 3.908-8.882 8.882s3.908 8.882 8.882 8.882h44.412c34.286 0 62.177-27.891 62.177-62.177 0-8.882-1.776-17.232-5.329-24.871-6.502 4.804-14.423 7.107-21.319 7.107zm62.177-79.941c4.91 0 8.882-3.973 8.882-8.882 0-24.487-19.925-44.412-44.412-44.412h-4.129c-14.824-11.632-31.756-17.765-49.165-17.765-24.487 0-44.412 19.925-44.412 44.412s19.925 44.412 44.412 44.412c42.991 0 71.059 45.635 71.059 79.941 0 15.549-4.628 29.939-12.308 42.216 23.77-17.863 38.955-46.073 38.955-77.746 0-22.18-3.756-43.397-10.929-62.177h2.047zm-222.059-62.177c19.541 0 35.53 15.989 35.53 35.53 0 4.975 3.908 8.882 8.882 8.882s8.882-3.908 8.882-8.882v-35.53c0-12.436-5.151-23.804-13.501-31.799 7.106-3.731 12.791-9.06 16.699-16.166 4.797-8.705 13.679-14.212 23.449-14.212 4.975 0 8.882-3.908 8.882-8.882s-3.908-8.882-8.882-8.882h-44.412c-34.286 0-62.177 27.891-62.177 62.177 0 8.882 1.776 17.232 5.329 24.871 6.502-4.805 14.423-7.107 21.319-7.107zm26.647 62.177c-42.991 0-71.059-45.636-71.059-79.941 0-15.549 4.628-29.939 12.308-42.216-23.77 17.862-38.955 46.072-38.955 77.745 0 22.18 3.756 43.397 10.929 62.177h-2.047c-4.91 0-8.882 3.973-8.882 8.882 0 24.487 19.925 44.412 44.412 44.412h4.129c14.824 11.632 31.756 17.765 49.165 17.765 24.487 0 44.412-19.925 44.412-44.412 0-24.488-19.925-44.412-44.412-44.412z" fill="url(#SVGID_2_)"/></g></g></g></svg>