<svg height="512" viewBox="0 0 512 512" width="512" xmlns="http://www.w3.org/2000/svg"><g id="Fish_Pond" data-name="Fish Pond"><g id="Filled"><path d="m400 136c-38.63 0-84.17-36.85-132.91-71l-54.07-34.18c-25.36-13.55-51.19-22.82-77.02-22.82-96 0-128 48-128 48l-8 16v440h512v-424h-8s-24 48-104 48z" fill="#b2ebf2"/><path d="m400 136c-.909 0-1.826-.04-2.743-.08-79.278 149.305-229.879 278.862-397.257 280.107v95.973h512v-424h-8s-24 48-104 48z" fill="#98e1ea"/><path d="m121.6 203.2c0-36.2 15.165-49.648 26.434-68.941 11.975-20.497-3.015-46.259-26.755-46.259h-.726c-14.608 0-56.553 40-56.553 108.8 0 54.4 48 67.2 48 121.6s-28.8 41.6-28.8 96l28.8 9.6c0-57.6 48-48 48-105.6s-38.4-57.6-38.4-115.2z" fill="#66bb6a"/><path d="m141.715 262.177c-7.128 12-20.341 22.507-33.714 30.745a79.849 79.849 0 0 1 4 25.478c0 54.4-28.8 41.6-28.8 96l28.799 9.6c0-57.6 48-48 48-105.6 0-27.881-9-42.267-18.285-56.223z" fill="#49ad4d"/><path d="m72 240c0-30.164 12.637-41.373 22.029-57.45 9.978-17.081 1.971-38.55-22.901-38.55-15.128 0-47.128 53.429-47.128 90.668 0 45.332 40 55.998 40 101.332s-24 34.668-24 80l24 8c0-48 40-40 40-88s-32-48-32-96z" fill="#81c784"/><path d="m48.043 381.971c-4.426 7.273-8.043 16.429-8.043 34.029l24 8c0-46.159 36.986-40.539 39.822-82.728a140.321 140.321 0 0 1 -55.779 40.699z" fill="#66bb6a"/><circle cx="64" cy="184" fill="#c8e6c9" r="16"/><circle cx="40" cy="216" fill="#c8e6c9" r="8"/><path d="m8 440 24-16 16-32 62.82 24 25.18 32c0 13.255-11.274 24-25.18 24h-70.82a32 32 0 0 1 -32-32z" fill="#a1887f"/><path d="m440 400s-50.981 48-104 48-88-48-88-48 34.981-48 88-48 104 48 104 48z" fill="#f09b73"/><path d="m416 284s-23.281 28-52 28-52-28-52-28 23.281-28 52-28 52 28 52 28z" fill="#f09b73"/><path d="m480 400s10.745-24 24-24h-32c-13.255 0-32 24-32 24s18.745 24 32 24h32c-13.255 0-24-24-24-24z" fill="#f09b73"/><g fill="#fff"><circle cx="220" cy="356" r="20"/><circle cx="464" cy="272" r="16"/><circle cx="476" cy="196" r="28"/><circle cx="220" cy="260" r="36"/></g><path d="m220 336h-.026a19.973 19.973 0 0 1 -15.948 32 19.991 19.991 0 1 0 15.974-32z" fill="#e0f7fa"/><path d="m464 256a16.221 16.221 0 0 0 -2.068.148 15.974 15.974 0 0 1 -11.864 23.7 16 16 0 1 0 13.932-23.848z" fill="#e0f7fa"/><path d="m479.867 168.272a27.988 27.988 0 0 1 -23.734 47.456 28 28 0 1 0 23.734-47.456z" fill="#e0f7fa"/><path d="m227.574 224.805a36 36 0 0 1 -31.148 62.39 36 36 0 1 0 31.148-62.39z" fill="#e0f7fa"/><path d="m394.5 265.732a68.108 68.108 0 0 1 -39.385 45.383 46.815 46.815 0 0 0 8.885.885c28.719 0 52-28 52-28a98.444 98.444 0 0 0 -21.5-18.268z" fill="#e58b6c"/><path d="m336 448c53.019 0 104-48 104-48a225.8 225.8 0 0 0 -48.289-33.058 136.4 136.4 0 0 1 -75.722 78.763 89.3 89.3 0 0 0 20.011 2.295z" fill="#e58b6c"/><circle cx="328" cy="368" fill="#f2bba5" r="16"/><circle cx="344" cy="400" fill="#f2bba5" r="8"/><circle cx="360.085" cy="272" fill="#f2bba5" r="8"/><path d="m33.327 471.3a32.1 32.1 0 0 0 6.673.7h70.82c13.906 0 25.18-10.745 25.18-24l-17.181-21.834c-15.642 30.581-50.768 49.355-85.492 45.134z" fill="#9c7b70"/><circle cx="68" cy="428" fill="#bcaaa4" r="12"/><circle cx="48" cy="448" fill="#bcaaa4" r="8"/><circle cx="204" cy="108" fill="#e0f7fa" r="20"/><circle cx="220" cy="156" fill="#e0f7fa" r="12"/></g><g id="Outline"><path d="m34.175 82.383c7.474 0 4.989-6.741 25.661-18.035a8 8 0 1 0 -7.672-14.041c-16.086 8.793-23.149 17.629-24.401 19.311a8 8 0 0 0 6.412 12.765z"/><path d="m89.886 53.058a196.528 196.528 0 0 1 46.114-5.058 8 8 0 0 0 0-16 212.54 212.54 0 0 0 -49.886 5.509 8 8 0 0 0 3.772 15.549z"/><path d="m408 168a8 8 0 0 0 -8-8c-41.11 0-82.979-29.918-127.308-61.592a8 8 0 1 0 -9.3 13.018c46.472 33.208 90.369 64.574 136.608 64.574a8 8 0 0 0 8-8z"/><circle cx="240" cy="48" r="8"/><circle cx="120" cy="384" r="8"/><circle cx="176" cy="504" r="8"/><circle cx="504" cy="504" r="8"/><path d="m262.5 71.552c48.723 34.142 95.935 72.448 137.5 72.448 83.979 0 110.085-50.282 111.155-52.422 4.689-9.38-9.458-16.59-14.29-7.2-.056.109-5.783 11.035-20.43 21.786-19.459 14.286-45.89 21.836-76.435 21.836-35.931 0-81.538-36.771-128.319-69.552a8 8 0 0 0 -9.182 13.1z"/><path d="m7.992 63.976c8.511 0 5.572-9.5 33.06-25.672 17.298-10.175 47.812-22.304 94.948-22.304 21.741 0 45.7 7.156 73.25 21.876a8 8 0 1 0 7.54-14.111c-29.926-15.992-56.353-23.765-80.79-23.765-99.142 0-133.253 49.457-134.656 51.563a8 8 0 0 0 6.648 12.413z"/><path d="m504 384a8 8 0 0 0 0-16h-32c-12.107 0-25.37 12.394-32.862 20.648-3.6-2.99-8.6-6.948-14.745-11.3a8 8 0 0 0 -9.246 13.058c5.093 3.606 9.37 6.945 12.6 9.586-15.107 12.342-53.267 40-91.746 40-38.667 0-67.573-28.509-77.651-40 26.629-30.362 61.932-47.288 102.075-36.608a8 8 0 0 0 4.112-15.463 111.4 111.4 0 0 0 -28.537-3.921c-56.44 0-92.939 49.194-94.465 51.288a8 8 0 0 0 0 9.424c1.526 2.094 38.025 51.288 94.465 51.288 44.968 0 87.441-31.529 103.151-44.634 7.495 8.255 20.749 20.634 32.849 20.634h32a8 8 0 0 0 0-16c-4.157 0-10.762-7.888-15.087-16 4.325-8.112 10.93-16 15.087-16zm-31.3 19.269a79.23 79.23 0 0 0 7.272 12.731h-7.972c-4.665 0-13.994-7.6-21.551-16 7.558-8.406 16.887-16 21.551-16h7.972a79.23 79.23 0 0 0 -7.274 12.731 8 8 0 0 0 .002 6.538z"/><circle cx="296" cy="400" r="8"/><circle cx="392" cy="368" r="8"/><circle cx="376" cy="280" r="8"/><circle cx="192" cy="232" r="8"/><path d="m40 480h70.82c26.736 0 38.067-28.558 31.467-36.947-26.417-32.958-24.981-33.139-28.612-34.527l-62.82-24a8 8 0 0 0 -10.01 3.9l-15.051 30.1c-18.585 13.544-25.794 14.229-25.794 21.474a40.045 40.045 0 0 0 40 40zm11.915-77.94 53.985 20.625 21.89 27.815c-1.294 7.638-8.411 13.5-16.97 13.5h-70.82a24.04 24.04 0 0 1 -23.658-19.946c31.81-21.833 15.513-5.628 35.573-41.994z"/><path d="m150 368.16c8.9-10.062 18-23.844 18-49.76 0-87.559-72.864-77.773-13.063-180.1a38.223 38.223 0 0 0 .119-38.718c-22.013-38.366-55.535-15.224-73.156 10.008-5.772 8.266 7.183 17.659 13.118 9.16 13.477-19.3 32.461-35.082 46.16-11.209 15.042 26.213-27.578 35.971-27.578 95.659 0 60.071 38.4 61.324 38.4 115.2 0 20.522-6.72 30.949-13.983 39.161-6.853 7.749 5.183 18.291 11.983 10.599z"/><path d="m95.938 379.162c7.942-8.762 16.062-20.744 16.062-43.162 0-50.585-32-51.619-32-96 0-21.57 6.791-31.759 14.654-43.555 5.6-8.406 18.271-25.587 7.457-44.432-5.84-10.177-17.132-16.013-30.981-16.013-23.653 0-55.13 62.729-55.13 98.67 0 48.3 40 59.676 40 101.33 0 9.73-1.138 17.145-3.581 23.331-3.735 9.457 11.1 15.451 14.882 5.877 3.206-8.119 4.7-17.4 4.7-29.208 0-48.3-40-59.676-40-101.33 0-35.827 30.23-81.029 39.221-82.67 8.032.021 14.072 2.853 17.013 7.977 11.305 19.702-24.235 30.891-24.235 80.023 0 50.585 32 51.619 32 96 0 15.991-4.764 24.524-11.918 32.418-6.925 7.641 4.94 18.375 11.856 10.744z"/><path d="m422.151 289.114a8 8 0 0 0 0-10.228c-1.051-1.262-26.051-30.886-58.151-30.886-23.658 0-43.445 16.08-52.645 25.049l-18.233-15.195a8 8 0 0 0 -10.244 12.292l16.622 13.854-16.625 13.854a8.01 8.01 0 0 0 5.125 14.146c4.97 0 5.618-3.017 23.351-17.049 9.204 8.969 28.991 25.049 52.649 25.049 32.1 0 57.1-29.624 58.151-30.886zm-99.081-5.114c27.686-26.5 54.145-26.534 81.86 0-27.683 26.5-54.146 26.534-81.86 0z"/><path d="m220 384a28 28 0 1 0 -28-28 28.032 28.032 0 0 0 28 28zm0-40a12 12 0 1 1 -12 12 12.013 12.013 0 0 1 12-12z"/><path d="m440 272a24 24 0 1 0 24-24 24.027 24.027 0 0 0 -24 24zm32 0a8 8 0 1 1 -8-8 8.009 8.009 0 0 1 8 8z"/><path d="m512 196a36 36 0 1 0 -36 36 36.04 36.04 0 0 0 36-36zm-36 20a20 20 0 1 1 20-20 20.023 20.023 0 0 1 -20 20z"/><path d="m264 260c0-40.552-52-54.823-52-36a8 8 0 0 0 8 8 28 28 0 1 1 -28 28 8 8 0 0 0 -8-8c-18.84 0-4.5 52 36 52a44.049 44.049 0 0 0 44-44z"/><path d="m472 496h-264a8 8 0 0 0 0 16h264a8 8 0 0 0 0-16z"/><path d="m144 496.333h-136a8 8 0 1 0 0 16h136a8 8 0 1 0 0-16z"/></g></g></svg>