<svg id="Layer_1" enable-background="new 0 0 512 512" height="512" viewBox="0 0 512 512" width="512" xmlns="http://www.w3.org/2000/svg"><g><path d="m331.942 512c-2.984 0-5.853-1.492-7.676-3.991-1.792-2.457-2.265-5.44-1.331-8.4 7.055-22.365 10.784-48.011 10.784-74.165 0-80.323-34.864-145.671-77.718-145.671s-77.718 65.348-77.718 145.671c0 26.154 3.729 51.8 10.784 74.165.934 2.959.461 5.942-1.331 8.399-1.823 2.5-4.692 3.992-7.677 3.992-1.742 0-3.414-.502-4.97-1.491-33.16-21.095-61.277-54.61-81.309-96.92-20.576-43.461-31.453-93.994-31.453-146.137-.001-147.473 86.881-267.452 193.673-267.452s193.674 119.979 193.674 267.453c0 52.142-10.876 102.676-31.453 146.137-20.032 42.31-48.149 75.824-81.309 96.92-1.555.988-3.227 1.49-4.97 1.49z" fill="#fead8a"/><g fill="#fd9468"><path d="m256 0c-5.201 0-10.354.293-15.453.852 99.595 10.909 178.221 126.31 178.221 266.601 0 52.142-10.876 102.676-31.453 146.137-16.414 34.669-38.26 63.426-63.857 84.29-.176.575-.344 1.157-.524 1.728-.934 2.96-.461 5.943 1.331 8.4 1.823 2.5 4.692 3.991 7.676 3.991 1.743 0 3.415-.502 4.971-1.491 33.16-21.095 61.277-54.61 81.309-96.92 20.576-43.461 31.453-93.994 31.453-146.137 0-147.472-86.882-267.451-193.674-267.451z"/><path d="m240.547 282.668c-4.996-1.897-10.163-2.896-15.453-2.896-42.854 0-77.718 65.348-77.718 145.671 0 25.486 3.551 50.481 10.259 72.436 5.642 4.599 11.463 8.819 17.452 12.629 1.555.989 3.227 1.491 4.97 1.491 2.985-.001 5.854-1.493 7.677-3.992 1.792-2.458 2.265-5.44 1.331-8.399-7.054-22.365-10.784-48.011-10.784-74.165.001-70.408 26.79-129.306 62.266-142.775z"/></g><g fill="#ffd1be"><path d="m355.87 38.38c-28.7 6.46-62.87 9.96-98.24 9.96-36.5 0-71.57-3.7-100.79-10.55 5.2-4.31 10.57-8.28 16.08-11.91 25.35 4.86 54.47 7.46 84.71 7.46 29.16 0 57.4-2.43 82.17-6.98 5.51 3.66 10.87 7.67 16.07 12.02z"/><path d="m179.74 453.66c-16.06 6.27-32.85 11.76-50.18 16.4-3.46-4.12-6.81-8.41-10.06-12.87 1.22-.31 2.43-.62 3.65-.94 19.24-5.05 37.82-11.17 55.42-18.26.24 5.27.63 10.5 1.17 15.67z"/><path d="m185.42 364.49c-1.28 5.17-2.4 10.5-3.34 15.97-27.08 5.24-55.93 8.38-85.05 9.21-4.41.12-8.83.19-13.25.2-1.85-4.93-3.58-9.93-5.18-15 5.99.04 12-.03 18.01-.2 30.56-.86 60.77-4.34 88.81-10.18z"/><path d="m208.32 310.47c-3.06 4.47-5.94 9.37-8.61 14.63-42.4-2.35-89.32-12.15-136.24-28.47-.42-5.38-.73-10.8-.91-16.24 50.51 18.18 101.07 28.6 145.76 30.08z"/><path d="m391.29 458.82c-3.3 4.47-6.73 8.78-10.26 12.9-.34-.08-.67-.17-1.01-.26-16.67-4.37-32.74-9.69-47.97-15.87.58-5.17 1.01-10.41 1.29-15.69 15.9 6.7 32.84 12.42 50.48 17.05 2.49.65 4.99 1.28 7.47 1.87z"/><path d="m433.4 374.87c-1.6 5.07-3.33 10.07-5.18 15-4.41-.01-8.83-.08-13.25-.2-29.12-.83-57.97-3.97-85.05-9.21-.94-5.47-2.06-10.8-3.34-15.97 28.04 5.84 58.26 9.32 88.82 10.18 6 .17 12.01.24 18 .2z"/><path d="m449.43 280.4c-.17 5.44-.48 10.85-.91 16.23-46.89 16.32-93.82 26.12-136.23 28.47-2.67-5.26-5.55-10.16-8.61-14.63 44.7-1.48 95.28-11.91 145.75-30.07z"/><path d="m410.63 106.59c-46.47 11.96-102.08 18.44-159.53 18.44-53.65 0-106.22-5.73-150.88-16.3 2.48-4.65 5.08-9.18 7.77-13.59 42.57 9.67 92.3 14.89 143.11 14.89 54.53 0 107.26-5.94 151.65-16.91 2.73 4.37 5.36 8.86 7.88 13.47z"/><path d="m441.28 189.53c-51.77 16.09-119.29 25.12-190.05 25.12-67.27 0-130.43-7.89-181.09-22.43 1.04-4.94 2.19-9.82 3.44-14.64 49.28 14.13 112.45 22.07 177.65 22.07 69.76 0 136.09-8.89 186.49-24.72 1.29 4.8 2.48 9.67 3.56 14.6z"/></g><ellipse cx="256.755" cy="222.31" fill="#f3f0f3" rx="27.11" ry="37.236"/></g></svg>