<!-- <svg id="visual" viewBox="0 0 900 600" width="900" height="600" xmlns="http://www.w3.org/2000/svg" xmlns:xlink="http://www.w3.org/1999/xlink" version="1.1"><path d="M0 530L30 513.8C60 497.7 120 465.3 180 429.3C240 393.3 300 353.7 360 334.5C420 315.3 480 316.7 540 340C600 363.3 660 408.7 720 414.8C780 421 840 388 870 371.5L900 355L900 601L870 601C840 601 780 601 720 601C660 601 600 601 540 601C480 601 420 601 360 601C300 601 240 601 180 601C120 601 60 601 30 601L0 601Z" fill="#fff" stroke-linecap="round" stroke-linejoin="miter"></path></svg> -->
<svg xmlns="http://www.w3.org/2000/svg" viewBox="0 0 1440 320">
  <path fill="#fff" fill-opacity="1" d="M0,288L48,277.3C96,267,192,245,288,224C384,203,480,181,576,149.3C672,117,768,75,864,53.3C960,32,1056,32,1152,42.7C1248,53,1344,75,1392,85.3L1440,96L1440,320L1392,320C1344,320,1248,320,1152,320C1056,320,960,320,864,320C768,320,672,320,576,320C480,320,384,320,288,320C192,320,96,320,48,320L0,320Z"></path>
</svg>

 